<?xml version="1.0" encoding="utf-8"?>
<!-- Generator: Adobe Illustrator 18.1.1, SVG Export Plug-In . SVG Version: 6.00 Build 0)  -->
<!DOCTYPE svg PUBLIC "-//W3C//DTD SVG 1.1//EN" "http://www.w3.org/Graphics/SVG/1.1/DTD/svg11.dtd">
<svg version="1.1" xmlns="http://www.w3.org/2000/svg" xmlns:xlink="http://www.w3.org/1999/xlink" x="0px" y="0px"
	 viewBox="0 0 700 550" enable-background="new 0 0 700 550" xml:space="preserve">
<g id="Layer_1">
	<g>
		<rect x="37.5" y="174.9" fill="#F5F5F5" width="625" height="358.6"/>
		<path fill="#E6E6E6" d="M660,177.4V531H40V177.4H660 M665,172.4h-5H40h-5v5V531v5h5h620h5v-5V177.4V172.4L665,172.4z"/>
	</g>
	<polygon fill="#586B4F" points="40,177 350,353.8 660,177 	"/>
	<g>
		<g>
			<path fill="#83C462" d="M299.5,379.7c-20.7,0-51.5-8.7-122.4-73.3c-25-22.8-44-51.8-56.4-86.3c-10.1-27.9-16-59.4-17.6-93.7
				c-1.7-37.7,2.3-70.6,5.4-89.5c24.8,19.2,57.3,28.6,93.9,39.2c51.6,14.9,115.7,33.5,183.1,87c28.4,22.6,46.8,48,54.4,75.4
				c6.1,21.9,5.3,45.5-2.3,68.3c-12.7,37.8-38.6,59.1-44.8,59.3c-3.6-0.3-7.3-0.4-10.9-0.4c-5.9,0-11.5,0.3-17.3,1l-0.4,0l-21.9,4.2
				l-0.3,0.1c-3.6,0.9-7,1.9-10.3,2.8C320.3,377,310.5,379.7,299.5,379.7z"/>
			<path fill="#70965C" d="M116.1,54.2c23.8,14.2,52.2,22.4,83.6,31.5c25.7,7.4,54.7,15.8,85,28.8c34.4,14.7,65.4,33.2,94.6,56.4
				c23.4,18.6,39.5,39.1,47.9,60.9c6.8,17.8,8.6,36.5,5.1,55.6c-3.1,17.1-10.5,34.4-20.8,48.8c-9.3,13-17.1,18.4-19.9,19.7
				c-3.2-0.2-6.5-0.3-9.7-0.3c-6.3,0-12.3,0.4-18.5,1.1l-0.7,0.1l-0.7,0.1l-21.3,4.1l-0.6,0.1l-0.6,0.1c-3.7,0.9-7.1,1.9-10.5,2.8
				c-10.7,3-20,5.5-29.6,5.5c-17.7,0-46.9-8-115.6-70.7c-23.7-21.6-41.8-49.2-53.7-82c-9.8-26.9-15.5-57.3-17.1-90.5
				C111.8,98.3,113.8,72.9,116.1,54.2 M102.1,17.5c0,0-46.8,191.3,68.3,296.2c66.8,60.9,101.5,75.9,129.1,75.9
				c15.8,0,29.3-4.9,45.1-8.9c0,0,0,0,0,0l21.3-4.1c0,0,0,0,0,0c5-0.6,10.4-1,16.1-1c3.3,0,6.7,0.1,10.2,0.4c0.2,0,0.4,0,0.6,0
				c27.9,0,123.2-122-1.1-220.8C266.5,55.7,155.5,75.4,102.1,17.5L102.1,17.5z"/>
		</g>
		<g>
			<path fill="#70965C" d="M108,33.7c0,0,0.1,0.3,0.3,1c0.2,0.6,0.5,1.6,0.9,2.8c0.8,2.4,2,6,3.6,10.4c1.6,4.5,3.7,9.8,6.2,15.8
				c1.3,3,2.7,6.2,4.2,9.5c1.5,3.3,3.2,6.7,4.9,10.3c3.6,7.1,7.7,14.5,12.6,22c4.8,7.5,10.3,15.1,16.6,22.3
				c6.3,7.2,13.3,14.1,21,20.3c3.9,3.1,7.9,6,12.2,8.7l3.2,2l3.3,1.9l3.3,1.8l3.4,1.8c2.3,1.1,4.5,2.2,6.9,3.2
				c1.1,0.5,2.3,1,3.5,1.5l1.9,0.8l1.9,0.8c2.5,1,5,2,7.5,3.1c2.6,1.1,5.1,2.3,7.7,3.4c2.5,1.2,5,2.4,7.4,3.6
				c2.4,1.2,4.8,2.5,7.2,3.7c2.4,1.3,4.7,2.7,7,4c2.3,1.3,4.6,2.8,6.8,4.1c2.2,1.4,4.4,2.9,6.5,4.3c2.1,1.5,4.2,3,6.2,4.5
				c2,1.6,4,3.1,5.9,4.7c1.9,1.6,3.8,3.2,5.6,4.8c7.2,6.5,13.4,13.4,18.4,20.2c5,6.9,8.8,13.6,11.6,19.9c2.7,6.3,4.5,12,5.5,16.7
				c1.1,4.7,1.5,8.5,1.7,11.1c0.2,2.6,0.3,3.9,0.3,3.9s-0.4-1.3-1.2-3.7c-0.8-2.4-2-5.9-3.9-10.2c-1.9-4.3-4.5-9.3-8-14.7
				c-0.9-1.3-1.8-2.7-2.8-4.1c-1-1.4-2-2.8-3.2-4.2c-2.2-2.8-4.7-5.6-7.4-8.4c-5.4-5.6-11.9-11.2-19.1-16.4
				c-1.8-1.3-3.7-2.6-5.6-3.9c-1.9-1.3-3.9-2.5-5.9-3.8c-2-1.2-4.1-2.4-6.2-3.6c-2.1-1.1-4.2-2.4-6.4-3.5c-2.2-1.1-4.4-2.3-6.6-3.4
				c-2.3-1.1-4.5-2.2-6.8-3.2c-2.3-1-4.6-2.1-7-3.1c-2.4-1-4.8-1.9-7.2-2.9c-2.4-0.9-4.8-1.8-7.2-2.7c-2.5-0.9-5.1-1.8-7.6-2.7
				l-3.8-1.3c-1.4-0.5-2.7-0.9-4.1-1.5c-2.7-1-5.4-2.2-8-3.4l-3.9-1.9l-3.9-2l-3.8-2.1l-3.7-2.2c-4.9-3.1-9.6-6.4-14-10
				c-8.9-7.2-16.6-15.4-23.2-23.9c-6.6-8.5-11.9-17.4-16.3-26.1c-4.3-8.7-7.7-17.3-10.2-25.3c-1.3-4-2.4-7.9-3.3-11.6
				c-0.9-3.7-1.7-7.2-2.3-10.6c-1.2-6.7-1.9-12.5-2.3-17.3c-0.4-4.8-0.4-8.6-0.4-11.2c0-1.3,0.1-2.3,0.1-3
				C107.9,34.1,108,33.7,108,33.7z"/>
		</g>
	</g>
	<g>
		<polygon fill="#F5F5F5" points="37,533 37,175 41.4,175 350,351 658.6,175 662,175 662,533 		"/>
		<path fill="#E6E6E6" d="M660,177v354H40V177h0.7L350,353.3L659.3,177H660 M665,172h-5h-0.7h-1.3l-1.2,0.9L350,347.9L43.2,172.8
			l-1.2-0.8h-1.3H40h-5v5.4V531v5h5h620h5v-5V177.4V172L665,172z"/>
	</g>
	<polyline fill="none" stroke="#E6E6E6" stroke-width="5" stroke-miterlimit="10" points="663,534 350,350.8 37,534 	"/>
</g>
<g id="Layer_2" display="none">
	<path display="inline" fill="#83C462" d="M268.7,84.6c-196,67.1-130.1,259.8-96.3,269.1c12.3,3.4,22.7,7.6,31.9,12.2
		C67.4,431.8,53.5,421.4,53.5,421.4c18.7,46.6-33.3,93-33.3,93c46.4-3.6,172.3-104.6,208.4-134.2c48.1,32.2,71.6,65.2,241.5-6.2
		C655.9,295.9,681.8,42.2,681.8,42.2C591.5,89.6,464.7,17.5,268.7,84.6z"/>
</g>
</svg>
