<?xml version="1.0" encoding="utf-8"?>
<!-- Generator: Adobe Illustrator 18.1.1, SVG Export Plug-In . SVG Version: 6.00 Build 0)  -->
<!DOCTYPE svg PUBLIC "-//W3C//DTD SVG 1.1//EN" "http://www.w3.org/Graphics/SVG/1.1/DTD/svg11.dtd">
<svg version="1.1" xmlns="http://www.w3.org/2000/svg" xmlns:xlink="http://www.w3.org/1999/xlink" x="0px" y="0px"
	 viewBox="0 0 700 700" enable-background="new 0 0 700 700" xml:space="preserve">
<g id="Layer_1">
	<g>
		<rect x="37.5" y="170.9" fill="#F5F5F5" width="625" height="358.6"/>
		<path fill="#E6E6E6" d="M660,173.4V527H40V173.4H660 M665,168.4h-5H40h-5v5V527v5h5h620h5v-5V173.4V168.4L665,168.4z"/>
	</g>
	<g>
		<path fill="#83C462" d="M517.9,476.5c-8.2-2.3-24.1-48.7,23.2-64.9c47.3-16.2,77.9,1.2,99.7-10.2c0,0-6.2,61.2-51.1,80
			C536.1,503.9,542.9,483.4,517.9,476.5z"/>
		<path fill="#83C462" d="M533.8,480.9c0,0-39.5,33.3-52.6,34.3c0,0,12.6-11.2,8-22.4c0,0,3.7,2.7,40.9-15.6
			C531.7,476.5,532.1,481.8,533.8,480.9z"/>
	</g>
	<polygon fill="#83C462" points="40,173 350,349.8 660,173 	"/>
</g>
<g id="Layer_2" display="none">
	<path display="inline" fill="#83C462" d="M268.7,159.6c-196,67.1-130.1,259.8-96.3,269.1c12.3,3.4,22.7,7.6,31.9,12.2
		C67.4,506.8,53.5,496.4,53.5,496.4c18.7,46.6-33.3,93-33.3,93c46.4-3.6,172.3-104.6,208.4-134.2c48.1,32.2,71.6,65.2,241.5-6.2
		c185.9-78.1,211.7-331.8,211.7-331.8C591.5,164.6,464.7,92.5,268.7,159.6z"/>
</g>
</svg>
