<?xml version="1.0" encoding="utf-8"?>
<!-- Generator: Adobe Illustrator 18.1.1, SVG Export Plug-In . SVG Version: 6.00 Build 0)  -->
<!DOCTYPE svg PUBLIC "-//W3C//DTD SVG 1.1//EN" "http://www.w3.org/Graphics/SVG/1.1/DTD/svg11.dtd">
<svg version="1.1" id="Layer_1" xmlns="http://www.w3.org/2000/svg" xmlns:xlink="http://www.w3.org/1999/xlink" x="0px" y="0px"
	 viewBox="0 0 553.5 565.5" enable-background="new 0 0 553.5 565.5" xml:space="preserve">
<g>
	<path fill="#83C462" d="M313,542.7c-31.2,0-77.3-12.9-182-108.4c-37.1-33.8-65.3-76.9-83.8-128.1c-14.9-41.3-23.6-87.9-25.9-138.5
		c-2.7-61,4.7-113.4,9.4-139.4c36.3,30.8,85.7,45.1,141.8,61.4c75.8,21.9,170.1,49.2,269.3,128c42.9,34.1,70.3,72.4,81.6,114
		c9,33.3,7.4,69.1-4.6,103.5c-8.4,24-21.7,47-37.5,64.6c-15,16.8-27.2,22.9-31.7,22.9c-0.1,0-0.2,0-0.2,0
		c-5.3-0.4-10.5-0.6-15.6-0.6c-8.4,0-16.5,0.5-24.8,1.5l-0.4,0l-31.8,6.1l-0.3,0.1c-5.2,1.3-10.2,2.7-15,4
		C344.5,538.6,329.7,542.7,313,542.7C313,542.7,313,542.7,313,542.7z"/>
	<path fill="#70965C" d="M37.8,46.4C73.7,71.5,119,84.6,169.7,99.3c37.8,10.9,80.6,23.3,125.4,42.5c51.1,21.9,97.1,49.3,140.5,83.8
		c87.3,69.4,90.8,142.4,78.2,191.4c-6.4,25-18.6,49.7-34.4,69.5c-15.5,19.5-27.2,25.5-30.1,26.2c-5.2-0.4-10.5-0.5-15.6-0.5
		c-8.8,0-17.3,0.5-26,1.6l-0.7,0.1l-0.7,0.1l-31.1,6l-0.6,0.1l-0.6,0.1c-5.3,1.3-10.3,2.7-15.2,4.1c-16.3,4.5-30.5,8.4-45.8,8.4
		c-19,0-39.1-6.2-63.1-19.6c-30.3-16.8-66.9-45-112.1-86.2c-35.8-32.7-63.1-74.3-81-123.8c-14.6-40.2-23.1-85.7-25.4-135.3
		C29,118.3,33.5,74.6,37.8,46.4 M24.5,8.5c0,0-68.4,279.7,99.8,433.1c97.7,89.1,148.5,111,188.8,111c23.1,0,42.8-7.2,65.9-13.1
		c0,0,0,0,0,0l31.1-6c0,0,0,0,0,0c7.4-0.9,15.2-1.4,23.6-1.4c4.8,0,9.7,0.2,14.9,0.5c0.3,0,0.6,0,0.9,0
		c40.8,0,180.2-178.4-1.6-322.8C264.8,64.3,102.6,93.1,24.5,8.5L24.5,8.5z"/>
</g>
<g>
	<path fill="#70965C" d="M33,32.2c0,0,0.1,0.5,0.3,1.4c0.2,0.9,0.6,2.3,1.1,4.1c1,3.6,2.5,8.9,4.5,15.4c2.1,6.6,4.7,14.5,8.1,23.5
		c1.7,4.5,3.6,9.2,5.6,14.1c2.1,4.9,4.4,10,6.8,15.3c5,10.5,10.9,21.7,17.8,33c6.9,11.3,15,22.6,24.2,33.5
		c9.2,10.9,19.7,21.3,31.3,30.6c5.8,4.6,11.9,9,18.2,13.1l4.8,3l4.9,2.8l5,2.7l5,2.6c3.4,1.7,6.8,3.3,10.3,4.7
		c1.7,0.8,3.5,1.5,5.2,2.2l2.7,1.1l2.8,1.1c3.6,1.4,7.5,2.9,11.2,4.5c1.8,0.8,3.7,1.6,5.5,2.3c1.8,0.8,3.6,1.6,5.5,2.4
		c7.3,3.3,14.4,6.7,21.3,10.4c6.9,3.7,13.6,7.5,20.1,11.5c6.5,4,12.7,8.2,18.6,12.5c5.9,4.3,11.5,8.8,16.8,13.5
		c10.6,9.2,19.6,19,27.1,28.7c3.7,4.9,7,9.7,9.9,14.5c2.9,4.8,5.4,9.4,7.5,13.9c4.2,8.9,6.9,17.1,8.7,23.9c1.7,6.8,2.5,12.3,3,16
		c0.2,1.9,0.4,3.3,0.4,4.2c0.1,1,0.1,1.5,0.1,1.5s-0.5-1.9-1.5-5.5c-1-3.6-2.6-8.8-5.2-15.1c-1.3-3.2-2.8-6.7-4.7-10.3
		c-1.8-3.7-4-7.6-6.5-11.6c-5-8.1-11.4-16.6-19.2-25.1c-7.9-8.5-17.2-16.9-27.8-24.9c-5.3-4-10.9-7.9-16.8-11.6
		c-5.9-3.8-12-7.3-18.4-10.8c-6.4-3.5-13-6.8-19.7-10c-6.8-3.2-13.7-6.2-20.8-9.1c-1.8-0.7-3.6-1.4-5.3-2.1
		c-1.8-0.7-3.6-1.4-5.4-2.1c-3.6-1.4-7.1-2.7-10.9-4c-1.9-0.7-3.8-1.3-5.6-2c-1.9-0.7-3.9-1.4-5.8-2.1c-3.9-1.5-7.7-3.2-11.4-4.9
		l-5.6-2.7l-5.5-2.9l-5.4-3.1c-1.8-1.1-3.5-2.2-5.3-3.2c-7-4.4-13.8-9.2-20.1-14.4c-12.7-10.3-23.9-22-33.4-34.1
		c-9.5-12.2-17.4-24.9-23.9-37.3c-6.5-12.5-11.5-24.7-15.5-36.2c-2-5.7-3.7-11.3-5.2-16.6C41,89.1,39.7,84,38.7,79.2
		c-2.1-9.6-3.4-18-4.2-25c-0.8-7-1.2-12.5-1.3-16.2C33,36.1,33,34.7,33,33.7C33,32.7,33,32.2,33,32.2z"/>
</g>
<g>
</g>
<g>
</g>
<g>
</g>
<g>
</g>
<g>
</g>
<g>
</g>
<g>
</g>
<g>
</g>
<g>
</g>
<g>
</g>
<g>
</g>
<g>
</g>
<g>
</g>
<g>
</g>
<g>
</g>
</svg>
